<svg width="1979" height="1513" viewBox="0 0 1979 1513" fill="none" xmlns="http://www.w3.org/2000/svg">
<path d="M1936.23 1367.03L1796.11 1463.73C1795.57 1464.1 1795.3 1464.29 1795 1464.29C1794.69 1464.3 1794.42 1464.12 1793.87 1463.75L1762.77 1443.17C1761.94 1442.62 1761.53 1442.35 1761.11 1442.45C1760.68 1442.55 1760.44 1442.98 1759.94 1443.84L1748.27 1464.04C1748.13 1464.27 1748.07 1464.38 1748.03 1464.51C1748 1464.64 1748 1464.77 1748 1465.04V1491.5V1511C1748 1511.94 1748 1512.41 1747.71 1512.71C1747.41 1513 1746.94 1513 1746 1513H936.5C935.557 1513 935.086 1513 934.793 1512.71C934.5 1512.41 934.5 1511.94 934.5 1511V1442.4C934.5 1442.2 934.5 1442.1 934.481 1442C934.462 1441.91 934.424 1441.82 934.348 1441.63L920.178 1407.43L920.178 1407.43C920.089 1407.22 920.045 1407.11 919.978 1407.02C919.911 1406.92 919.825 1406.85 919.651 1406.69L919.65 1406.69L895.687 1385.66L895.683 1385.66C895.592 1385.58 895.546 1385.54 895.506 1385.49C895.465 1385.45 895.429 1385.4 895.359 1385.29L870.02 1348.48C869.535 1347.78 869.292 1347.42 868.919 1347.34C868.547 1347.25 868.171 1347.45 867.419 1347.86L798.336 1385.32C798.169 1385.41 798.085 1385.45 797.995 1385.48C797.92 1385.51 797.843 1385.52 797.713 1385.53L797.62 1385.55L689.406 1398.45C689.204 1398.48 689.103 1398.49 689.002 1398.48C688.901 1398.47 688.804 1398.44 688.609 1398.39L688.607 1398.39L570.43 1363.77C569.973 1363.64 569.745 1363.57 569.575 1363.42C569.405 1363.26 569.315 1363.04 569.137 1362.6L548.062 1310.39C547.792 1309.72 547.656 1309.39 547.37 1309.21C547.085 1309.04 546.725 1309.08 546.005 1309.15L268.159 1337.43C267.832 1337.47 267.669 1337.48 267.512 1337.45C267.354 1337.41 267.213 1337.33 266.931 1337.16L172.474 1280.78C172.239 1280.64 172.121 1280.57 172.027 1280.47C171.933 1280.38 171.868 1280.26 171.738 1280.01L137.496 1216.42C137.253 1215.97 137.132 1215.74 136.928 1215.61C136.724 1215.47 136.47 1215.44 135.96 1215.38L1.77516 1200.2C0.930659 1200.11 0.508409 1200.06 0.254205 1199.77C0 1199.49 0 1199.06 0 1198.21V1175.5V1133.5V1112.5V379.258C0 377.605 0 376.779 0.530213 376.496C1.06041 376.214 1.74598 376.676 3.1171 377.599L3.1172 377.599L342.761 606.339C342.88 606.419 342.94 606.459 343.004 606.491C343.069 606.522 343.138 606.544 343.275 606.587L670.295 709.935C670.398 709.968 670.449 709.984 670.501 709.994C670.554 710.005 670.607 710.01 670.714 710.02L772.809 719.482C772.905 719.491 772.952 719.496 772.999 719.505C773.046 719.513 773.092 719.527 773.184 719.553L839.73 738.921C839.865 738.961 839.932 738.98 839.996 739.009C840.06 739.038 840.119 739.075 840.238 739.15L940.266 802.222C940.861 802.597 941.159 802.785 941.279 803.088C941.399 803.391 941.312 803.731 941.136 804.413L920.179 885.805C920.09 886.149 920.046 886.321 920.062 886.494C920.078 886.668 920.154 886.828 920.304 887.15L959.087 970.117C959.29 970.551 959.391 970.768 959.571 970.913C959.75 971.058 959.983 971.112 960.449 971.219L1188.78 1023.95C1188.89 1023.97 1188.94 1023.99 1189 1023.99C1189.06 1024 1189.11 1024 1189.23 1024H1263.03C1264.86 1024 1265.77 1024 1266.04 1023.43C1266.31 1022.86 1265.73 1022.15 1264.58 1020.74L1236.13 985.776C1235.82 985.395 1235.67 985.205 1235.62 984.974C1235.56 984.744 1235.62 984.505 1235.74 984.029L1239.12 970.515C1239.3 969.787 1239.39 969.424 1239.67 969.212C1239.94 969 1240.31 969 1241.06 969H1249.64C1250.3 969 1250.63 969 1250.88 968.827C1251.14 968.654 1251.26 968.349 1251.5 967.738L1251.5 967.736L1266.86 928.95C1267.05 928.484 1267.14 928.251 1267.12 928.012C1267.09 927.772 1266.96 927.561 1266.69 927.138L1240.8 886.542C1240.2 885.596 1239.9 885.124 1240.04 884.676C1240.19 884.227 1240.71 884.021 1241.75 883.607L1265.92 874.023C1266.56 873.77 1266.88 873.644 1267.05 873.377C1267.22 873.109 1267.21 872.767 1267.18 872.082L1266.39 852.716C1266.33 851.474 1266.31 850.853 1265.89 850.57C1265.47 850.287 1264.88 850.497 1263.71 850.915L1238.6 859.89C1237.22 860.386 1236.52 860.635 1236.09 860.28C1235.65 859.924 1235.75 859.194 1235.95 857.734L1239.41 832.622V832.621C1239.46 832.313 1239.48 832.159 1239.54 832.021C1239.61 831.882 1239.71 831.768 1239.93 831.539L1265.74 803.575C1266.01 803.291 1266.14 803.149 1266.2 802.973C1266.27 802.798 1266.27 802.604 1266.27 802.218V776.409C1266.27 774.325 1266.27 773.282 1265.65 773.029C1265.03 772.775 1264.3 773.52 1262.84 775.012L1238.29 800.144C1237.07 801.39 1236.46 802.014 1235.88 801.826C1235.29 801.638 1235.15 800.777 1234.88 799.055L1225.6 739.665C1225.55 739.335 1225.53 739.171 1225.55 739.009C1225.58 738.848 1225.66 738.701 1225.82 738.408L1238.33 715.17C1238.87 714.167 1239.14 713.665 1238.96 713.226C1238.78 712.786 1238.23 712.625 1237.14 712.303L1201.3 701.737C1200.91 701.62 1200.71 701.562 1200.55 701.435C1200.4 701.308 1200.3 701.126 1200.11 700.762L1189.38 680.717C1189.19 680.363 1189.1 680.186 1189.08 679.992C1189.06 679.797 1189.11 679.604 1189.23 679.219L1195.29 658.233C1195.39 657.871 1195.45 657.689 1195.56 657.542C1195.67 657.395 1195.83 657.295 1196.15 657.095L1196.15 657.094L1214.95 645.29C1215.9 644.693 1216.37 644.394 1216.43 643.927C1216.49 643.459 1216.11 643.049 1215.34 642.229L1180.82 605.338C1180.66 605.17 1180.58 605.086 1180.52 604.987C1180.47 604.888 1180.43 604.778 1180.36 604.558L1163.54 549.757C1163.28 548.923 1163.16 548.506 1163.32 548.154C1163.49 547.802 1163.9 547.64 1164.7 547.314L1203.72 531.618C1204.98 531.112 1205.61 530.859 1205.72 530.336C1205.83 529.813 1205.35 529.329 1204.4 528.362L1181.57 505.094C1181.06 504.568 1180.8 504.305 1180.76 503.968C1180.72 503.632 1180.9 503.314 1181.28 502.679L1199.74 471.29C1200.11 470.669 1200.29 470.358 1200.25 470.028C1200.22 469.697 1199.97 469.434 1199.48 468.908L1173.66 441.368C1172.31 439.926 1171.63 439.205 1171.89 438.602C1172.15 438 1173.14 438 1175.12 438H1213.14C1214.83 438 1215.68 438 1215.96 437.46C1216.24 436.921 1215.75 436.23 1214.78 434.848L1196.03 408.245C1195.77 407.879 1195.64 407.695 1195.6 407.482C1195.56 407.268 1195.61 407.051 1195.72 406.615L1195.72 406.615L1202.86 377.62C1203.35 375.65 1203.59 374.665 1204.25 374.561C1204.9 374.458 1205.44 375.32 1206.5 377.045L1214.03 389.198C1215.27 391.2 1215.89 392.2 1216.58 392.05C1217.27 391.9 1217.42 390.733 1217.71 388.399V388.398L1224.38 335.943V335.942C1224.44 335.479 1224.47 335.247 1224.59 335.058C1224.71 334.868 1224.91 334.744 1225.31 334.497L1255.94 315.406C1257.29 314.563 1257.97 314.141 1258.49 314.427C1259 314.713 1259 315.51 1259 317.103V413.554C1259 413.776 1259 413.887 1259.02 413.995C1259.05 414.102 1259.1 414.203 1259.19 414.404L1293.85 488.183C1293.93 488.341 1293.96 488.42 1294.01 488.491C1294.06 488.562 1294.12 488.624 1294.25 488.747L1321.72 516.22C1321.86 516.359 1321.93 516.429 1322.01 516.484C1322.09 516.538 1322.18 516.576 1322.37 516.652L1377.77 539.698C1378.13 539.847 1378.31 539.922 1378.5 539.926C1378.69 539.929 1378.87 539.862 1379.24 539.727L1441.3 516.758C1441.65 516.63 1441.82 516.567 1441.96 516.449C1442.09 516.332 1442.18 516.171 1442.36 515.85L1462.85 478.768C1462.93 478.634 1462.96 478.567 1462.99 478.496C1463.02 478.424 1463.03 478.349 1463.06 478.2L1493.39 329.031C1493.45 328.767 1493.47 328.635 1493.46 328.502C1493.46 328.37 1493.41 328.242 1493.33 327.987L1470.92 262.168C1470.31 260.372 1470 259.474 1470.47 259.033C1470.94 258.592 1471.82 258.953 1473.57 259.674L1505.22 272.678C1505.6 272.837 1505.8 272.916 1505.94 273.06C1506.08 273.204 1506.16 273.398 1506.31 273.786L1546.81 375.014L1546.81 375.015C1546.9 375.256 1546.95 375.377 1546.97 375.504C1546.98 375.632 1546.97 375.761 1546.93 376.019L1541.1 420.219C1541.05 420.605 1541.03 420.798 1541.07 420.982C1541.12 421.166 1541.23 421.325 1541.46 421.642L1580.22 475.999C1581.02 477.127 1581.42 477.691 1581.96 477.668C1582.51 477.645 1582.86 477.049 1583.57 475.857L1692.36 292.232C1692.43 292.116 1692.47 292.058 1692.49 291.996C1692.52 291.935 1692.54 291.87 1692.57 291.74L1771.6 2.45896C1771.79 1.75686 1771.89 1.40581 1772.15 1.20097C1772.42 0.996141 1772.78 0.992802 1773.51 0.986125L1879.18 0.0166709C1880.05 0.00875039 1880.48 0.00479015 1880.77 0.262035C1881.05 0.519279 1881.1 0.948592 1881.19 1.80722L1884.97 37.7366C1884.99 37.8681 1884.99 37.9339 1884.99 37.9998C1884.99 38.0657 1884.98 38.1309 1884.96 38.2615L1860.19 193.325C1860.1 193.898 1860.05 194.184 1860.15 194.44C1860.25 194.695 1860.48 194.872 1860.94 195.226L1872.22 203.9C1872.6 204.194 1872.79 204.342 1872.9 204.551C1873 204.76 1873 205.001 1873 205.485V305.725C1873 305.862 1873 305.931 1872.99 305.999C1872.98 306.067 1872.96 306.133 1872.93 306.265L1841.11 419.599L1841.11 419.601C1841.06 419.799 1841.03 419.899 1841.02 420.001C1841.01 420.104 1841.03 420.207 1841.06 420.413L1846.92 462.947C1846.96 463.222 1846.98 463.359 1846.96 463.495C1846.94 463.63 1846.89 463.757 1846.78 464.01L1846.78 464.012L1768.7 645.209C1768.16 646.469 1767.89 647.099 1768.18 647.55C1768.48 648 1769.17 648 1770.54 648H1782.53C1783.67 648 1784.24 648 1784.54 648.371C1784.84 648.741 1784.72 649.299 1784.49 650.415L1767.61 729.971C1767.56 730.234 1767.53 730.365 1767.54 730.498C1767.54 730.631 1767.59 730.758 1767.67 731.013L1784.87 783.103C1784.93 783.301 1784.97 783.4 1785.02 783.489C1785.07 783.579 1785.14 783.656 1785.28 783.811L1824.19 827.16C1824.35 827.329 1824.42 827.414 1824.51 827.479C1824.61 827.544 1824.71 827.587 1824.92 827.674L1947.16 877.861L1947.16 877.861C1947.33 877.93 1947.41 877.965 1947.49 878.014C1947.57 878.063 1947.63 878.126 1947.77 878.251L1978.29 906.832C1978.64 907.16 1978.81 907.324 1978.89 907.54C1978.98 907.756 1978.95 907.996 1978.91 908.474L1937.09 1365.57C1937.04 1366.03 1937.02 1366.26 1936.91 1366.45C1936.8 1366.64 1936.61 1366.77 1936.23 1367.03Z" fill="url(#paint0_linear)"/>
<defs>
<linearGradient id="paint0_linear" x1="0" y1="0" x2="1979" y2="1513" gradientUnits="userSpaceOnUse">
<stop/>
<stop offset="1" stop-color="#00FF00"/>
</linearGradient>
</defs>
</svg>
